# xmcd
#
# Track frame offsets:
#	150
#	14613
#	27569
#	41472
#	56655
#	73678
#	86499
#
# Disc length: 1324 seconds
# Revision: 0
# Processed by: cddbd v1.5.2PL0 Copyright (c) Steve Scherf et al.
# Submitted via: dBpowerAMP V12.0
#
DISCID=5a052a07
DTITLE=The Lovelocks - 20 Dollars In My Pocket
DYEAR=2018
DGENRE=Canadian
TTITLE0=Medicine
TTITLE1=Staycation
TTITLE2=20 Dollars In My Pocket
TTITLE3=Good Way To Go
TTITLE4=Fast Forward
TTITLE5=Count On Me
TTITLE6=Staycation (Michael IU Remix)
EXTD=
EXTT0=
EXTT1=
EXTT2=
EXTT3=
EXTT4=
EXTT5=
EXTT6=
PLAYORDER=
